  <svg xmlns="http://www.w3.org/2000/svg" viewBox="0 0 1024 1024">
  <defs>
    <mask id="a">
      <path fill="#fff" d="M0 0h1024v1024H0z"/>
    </mask>
  </defs>
  <g mask="url(#a)" transform="translate(25 310) scale(0.95)" fill="#ffffff">
    <path d="M682.142 209.064c20.05-7.395 39.724-14.689 59.441-21.863 3.312-1.206 5.079-2.324 4.398-6.688-1.021-6.55-.521-13.273 1.491-19.77 1.276-4.12 3.863-6.416 8.13-7.02 11.282-1.6 22.612-1.456 33.91-.59 8.888.683 11.695 3.327 13.295 12.063.804 4.392 1.302 8.975.997 13.407-.652 9.488-5.711 16.07-14.58 19.707-30.817 12.638-61.834 24.814-91.985 39.011-28.22 13.288-56.082 27.218-80.374 47.2-3.729 3.066-7.287 6.338-10.947 9.49-2.962 2.55-3.081 5.03-.493 8.103 8.65 10.266 18.325 19.32 29.748 26.464 16.43 10.274 33.925 18.472 51.445 26.634 2.259 1.053 4.267 1.64 6.2-.7 1.085-1.315 2.818-1.601 4.498-1.913 7.78-1.44 15.604-1.02 23.416-.591 5.278.289 8.181 3.228 8.641 8.537.072.825.31 1.635.444 2.456 2.768 16.961-11.7 29.053-27.75 22.732-18.59-7.322-36.829-15.54-55.817-21.84-19.441-6.45-39.092-12.177-58.974-17.127-4.85-1.207-8.756-.561-12.105 3.389-3.012 3.554-6.452 6.746-9.466 10.299-1.97 2.322-3.94 3.003-6.974 2.219-28.765-7.435-57.614-7.46-86.483-.569-3.254.777-5.782.132-7.998-2.502-2.57-3.055-5.596-5.732-8.11-8.828-3.63-4.468-8.028-5.106-13.414-4.085-32.866 6.228-64.419 16.694-95.349 29.205-6.792 2.747-13.478 5.759-20.263 8.524-4.97 2.024-9.964 3.407-15.537 2.134-16.645-3.802-18.323-16.833-14.17-29.91.764-2.407 2.878-3.533 5.345-3.98 8.44-1.53 16.91-1.227 25.38-.375 1.132.114 2.653.305 3.261 1.055 4.182 5.156 8.29 2.054 12.378.062 18.72-9.123 37.58-18.015 54.409-30.495 7.241-5.371 13.877-11.427 19.753-18.31 6.144-7.196 6.195-7.322-1.01-13.773-15.87-14.21-33.751-25.447-52.402-35.564-38.014-20.621-78.11-36.569-118.116-52.727-4.321-1.745-8.75-3.32-12.85-5.499-7.694-4.09-11.657-10.69-11.744-19.482a57 57 0 0 1 2.05-15.796c1.322-4.782 4.334-7.555 9.532-8.152 12.146-1.393 24.257-1.372 36.377.13 4.463.552 7.41 3.03 8.473 7.342 1.638 6.645 2.812 13.415 1.44 20.24-.621 3.083.15 4.571 3.122 5.591 40.785 13.992 80.6 30.811 122.268 42.228 37.297 10.219 75.218 15.42 113.994 14.963 48.379-.57 94.73-11.051 140.124-26.851 7.548-2.627 15.06-5.36 22.95-8.185"/>
    <path d="M385.166 50.738c27.75 11.974 53.744 26.03 74.972 47.552 11.536 11.696 20.506 24.961 24.206 41.256 4.712 20.748-1.105 38.874-14.29 54.915-8.009 9.743-18.034 17.244-28.55 24.091-1.562 1.017-3.095 1.779-5.124 1.32-14.62-3.303-29.115-7.08-43.471-11.387-.75-.226-1.413-.742-2.11-1.12.068-3.011 2.546-3.465 4.267-4.51 9.877-6.004 19.181-12.66 26.455-21.833 12.866-16.23 14.113-33.837 5.267-51.996-8.785-18.034-24.074-30.022-40.736-40.202-31.124-19.017-65.327-29.788-100.926-36.462-27.268-5.113-54.847-7.339-82.537-5.89-31.415 1.642-62.277 6.396-90.942 20.599C99.912 72.885 88.94 79.693 80.01 89.436c-15.46 16.87-17.967 38.707-6.645 58.619 7.852 13.81 19.404 24.097 32.34 32.84 31.319 21.166 66.27 33.067 103.187 39.837 17.209 3.156 34.486 5.656 51.99 6.403 1.963.084 4.038.422 5.829 1.186 15.935 6.797 31.822 13.709 47.71 20.618 1.026.447 2.232.806 2.79 2.92-4.741.401-9.377 1.06-14.023 1.15-63.377 1.217-125.253-7.146-184.647-30.098-29.246-11.302-56.59-26.116-79.63-47.846-12.4-11.694-22.467-25.057-27.408-41.684-7.008-23.58-1.095-44.01 15.356-61.783 15.928-17.207 36.081-27.748 57.6-35.891 26.153-9.896 53.32-15.409 81.141-18.112 28.46-2.766 56.886-2.583 85.295.208 46.189 4.536 90.919 15.156 134.27 32.935m454.862 165.238c30.343-8.701 59.174-19.736 84.385-38.644 8.164-6.123 15.647-12.998 21.912-21.076 20.444-26.358 16.245-56.642-10.52-76.526-18.567-13.792-39.794-21.335-62.076-26.341-25.975-5.837-52.346-8.19-78.88-7.013-54.578 2.423-107.006 13.445-154.537 41.883-15.686 9.384-29.845 20.786-39.476 36.785-11.902 19.773-10.237 40.3 4.454 57.881 7.065 8.456 15.988 14.508 25.46 19.88 1.68.953 3.783 1.456 4.554 3.537-.31 2.05-2.087 2.111-3.408 2.501-13.571 4.008-27.233 7.68-41.024 10.868-1.69.39-3.268.58-4.83-.316-22.097-12.68-40.109-28.83-45.555-55.16-3.485-16.851.498-32.396 9.625-46.714 12.258-19.23 29.125-33.711 48.232-45.67 32.836-20.552 68.876-33.13 106.293-42.29 25.767-6.308 51.851-10.546 78.278-12.496 23.606-1.743 47.206-1.762 70.848.41 25.465 2.34 50.502 6.589 74.874 14.32 21.063 6.682 41.232 15.347 58.774 29.151 13.398 10.543 23.986 23.187 27.858 40.286 4.718 20.834-1.487 39.212-13.643 55.903-14.824 20.355-34.696 34.802-56.377 46.993-37.297 20.974-77.606 33.237-119.411 41.117-36.493 6.879-73.356 8.604-110.394 7.748-2.244-.051-4.657.375-6.62-1.413.69-2.148 2.685-2.464 4.272-3.16 15.097-6.627 30.229-13.175 45.336-19.779 2.496-1.09 5.092-1.526 7.776-1.614 24.898-.81 49.294-4.994 73.82-11.05m-474.646 80.787c-29.121-6.082-58.18-7.639-87.381-6.396-25.593 1.09-50.694 4.978-74.279 15.747-7.02 3.206-13.509 7.203-18.871 12.87-7.126 7.53-8.347 16.54-3.461 25.714 3.485 6.542 8.923 11.158 14.997 15.073 18.894 12.176 39.82 19.221 61.619 23.874 7.642 1.631 15.4 2.758 23.143 3.85 2.846.402 4.911 1.56 6.813 3.632 11.105 12.104 24.767 14.658 40.138 10.46 1.761-.48 3.586-1.003 5.143-1.913 13.47-7.877 28.376-9.509 43.541-11.07 24.65-2.54 48.073-9.113 68.09-24.791 4.104-3.215 6.842-2.739 10.315 1.404 3.102 3.7 5.922 7.636 8.93 11.418 2.16 2.715 1.8 4.724-1.308 6.404-6.035 3.26-12.403 5.721-18.874 7.898-25.571 8.602-51.89 13.104-78.81 14.49-8.323.427-16.64.638-24.964.9-25.753.81-51.188-2.135-76.552-6.085-27.256-4.245-53.801-11.118-79.151-22.108-14.311-6.205-27.803-13.815-37.845-26.228-12.255-15.15-11.223-30.125 2.945-43.364a66 66 0 0 1 7.774-6.258c16.388-11.192 34.89-17.126 54.037-21.318 26.307-5.76 53.014-7.868 79.87-7.85 26.856.017 53.523 2.725 80.033 6.966 2.484.397 4.884 1.083 6.975 2.57 5.972 4.25 11.973 8.46 17.893 12.783 1.85 1.35 4.001 2.745 2.254 5.69-1.565 2.639-3.678 2.853-6.415 2.11-6.905-1.876-13.858-3.578-20.802-5.304-1.773-.44-3.588-.712-5.797-1.168m338.034-22.571c41.03-1.7 81.398-.778 120.99 9.61 13.897 3.645 27.403 8.41 39.832 15.757 9.802 5.794 18.375 12.959 21.911 24.299 3.42 10.968-.507 20.392-7.711 28.526-12.272 13.856-28.521 21.768-45.159 28.723-29.723 12.426-61.018 18.4-92.87 22.41-24.412 3.072-48.854 3.52-73.297 2.55-32.761-1.3-64.996-5.898-94.982-20.47-1.493-.726-2.996-1.469-4.374-2.384-2.716-1.804-3.18-4.116-1.21-6.803 2.859-3.895 5.704-7.8 8.588-11.675 2.141-2.877 4.79-2.877 7.4-.861 25.018 19.32 54.477 24.618 84.876 26.866 4.447.328 8.398 1.868 12.397 3.548 8.576 3.603 16.88 8.008 26.36 8.986 12.373 1.276 23.162-1.897 31.41-11.57 2.27-2.662 4.846-3.62 8.144-4.062 28.625-3.837 56.162-11.142 81.162-26.2 5.58-3.361 10.78-7.243 14.747-12.558 7.944-10.643 7.114-22.196-2.683-31.381-9.076-8.509-20.315-13.296-31.946-17.008-32.392-10.339-65.712-11.482-99.326-9.62-21.66 1.199-43.07 3.937-64.076 9.465-3.217.847-6.393 1.864-9.548 2.92-2.542.85-4.814 1.336-6.442-1.612-1.582-2.864.376-4.326 2.104-5.884 11.4-10.277 24.13-17.16 39.97-18.224 11.092-.744 22.15-2.44 33.733-3.348"/>
  </g>
</svg>
